<svg  enable-background="new 0 0 256 256" height="512" viewBox="0 0 256 256" width="512" xmlns="http://www.w3.org/2000/svg">
                    <path d="m54.697 231.071-20.16-20.16 8.367-39.021 50.815 50.815z" fill="#526faa"/>
                    <path d="m42.904 171.889-8.367 39.022 5.332 5.332 8.366-39.022z" fill="#708dc8"/>
                    <path d="m97.153 226.139-56.524-56.524c-3.681-3.681-3.681-9.648 0-13.329l7.404-7.404 69.853 69.853-7.404 7.404c-3.681 3.681-9.648 3.681-13.329 0z" fill="#526faa"/>
                    <path d="m249.24 55.65-38.121-38.121c-3.681-3.681-9.648-3.681-13.329 0l-4.582 4.582 51.45 51.45 4.582-4.582c3.68-3.681 3.68-9.649 0-13.329z" fill="#526faa"/>
                    <path d="m124.992 225.842-84.066-84.066 135.989-123.282c3.723-3.375 9.441-3.235 12.994.318l58.046 58.046c3.554 3.554 3.694 9.271.318 12.994z" fill="#fcc24c"/>
                    <path d="m88.387 217.373-39.022 8.366 5.332 5.332 39.022-8.366z" fill="#34518c"/>
                    <path d="m34.537 210.911 20.16 20.16-10.161 10.161h-40.536z" fill="#fcc24c"/>
                    <path d="m248.274 89.853c3.376-3.723 3.236-9.44-.318-12.994l-6.664-6.664c3.554 3.554 3.694 9.271.318 12.994l-123.282 135.989 6.664 6.664z" fill="#dea42e"/>
                    <path d="m176.915 18.494c3.723-3.375 9.441-3.235 12.994.318l6.664 6.664c-3.554-3.554-9.271-3.694-12.994-.318l-135.989 123.282-6.664-6.664z" fill="#fce06a"/>
                    <path d="m107.813 158.955c-7.068-7.068-7.068-18.527 0-25.595l60.671-60.671c7.068-7.068 18.527-7.068 25.595 0 7.068 7.068 7.068 18.527 0 25.595l-60.671 60.67c-7.068 7.069-18.527 7.069-25.595.001z" fill="#f4efed"/>
                    <path d="m249.24 55.65-5.998-5.998c3.681 3.681 3.681 9.648 0 13.328l-4.582 4.582 5.998 5.998 4.582-4.582c3.68-3.68 3.68-9.647 0-13.328z" fill="#34518c"/>
                    <path d="m211.118 17.529 5.998 5.998c-3.681-3.681-9.648-3.681-13.328 0l-4.582 4.582-5.998-5.998 4.582-4.582c3.68-3.681 9.648-3.681 13.328 0z" fill="#708dc8"/>
                    <path d="m111.221 212.071-7.404 7.404c-3.681 3.681-9.648 3.681-13.328 0l6.664 6.664c3.681 3.681 9.648 3.681 13.329 0l7.404-7.404z" fill="#34518c"/>
                    <path d="m54.697 155.547-7.404 7.404c-3.681 3.68-3.681 9.648 0 13.328l-6.664-6.664c-3.681-3.681-3.681-9.648 0-13.329l7.404-7.404z" fill="#708dc8"/>
                    <g fill="#690589">
                    <path d="m124.992 227.842c-.53 0-1.039-.21-1.414-.586l-84.066-84.066c-.388-.387-.599-.916-.585-1.463.013-.547.25-1.065.655-1.433l135.989-123.282c4.521-4.097 11.439-3.927 15.752.386l58.047 58.046c4.313 4.313 4.482 11.232.386 15.752l-123.282 135.99c-.367.406-.885.643-1.433.656-.017 0-.032 0-.049 0zm-81.167-85.995 81.096 81.096 121.872-134.433c2.662-2.937 2.552-7.434-.251-10.237l-58.047-58.046c-2.803-2.803-7.3-2.912-10.237-.25z"/>
                    <path d="m155.691 52.788c-.545 0-1.088-.221-1.482-.657-.742-.818-.681-2.083.138-2.825l8.7-7.887c.82-.743 2.084-.679 2.825.139.742.818.681 2.083-.138 2.825l-8.7 7.887c-.384.347-.864.518-1.343.518z"/>
                    <path d="m244.657 75.56c-.512 0-1.023-.195-1.414-.586l-51.449-51.45c-.375-.375-.586-.884-.586-1.414s.211-1.039.586-1.414l4.582-4.582c4.454-4.455 11.702-4.454 16.156 0l38.121 38.121c2.158 2.158 3.347 5.027 3.347 8.079 0 3.051-1.188 5.92-3.347 8.078l-4.582 4.582c-.39.391-.902.586-1.414.586zm-48.621-53.45 48.621 48.622 3.168-3.167c2.895-2.895 2.895-7.605 0-10.5l-38.121-38.121c-2.895-2.895-7.605-2.895-10.5 0z"/>
                    <path d="m103.817 230.894c-2.926 0-5.851-1.113-8.078-3.341l-56.524-56.524c-4.455-4.455-4.455-11.702 0-16.157l7.404-7.404c.781-.781 2.047-.781 2.828 0l69.853 69.853c.375.375.586.884.586 1.414s-.211 1.039-.586 1.414l-7.404 7.404c-2.227 2.227-5.154 3.341-8.079 3.341zm-55.784-79.183-5.99 5.989c-2.895 2.895-2.895 7.605 0 10.5l56.524 56.524c2.895 2.895 7.605 2.895 10.5 0l5.99-5.99z"/>
                    <path d="m120.61 166.256c-5.368 0-10.415-2.09-14.211-5.887-3.797-3.796-5.888-8.843-5.888-14.212 0-5.368 2.091-10.416 5.888-14.211l60.67-60.671c7.836-7.836 20.588-7.836 28.424 0 7.836 7.837 7.836 20.588 0 28.424l-60.671 60.67c-3.796 3.797-8.843 5.887-14.212 5.887zm60.671-96.86c-4.123 0-8.245 1.569-11.384 4.707l-60.67 60.671c-3.041 3.041-4.716 7.083-4.716 11.383s1.675 8.343 4.716 11.384c3.041 3.041 7.083 4.715 11.383 4.715 4.301 0 8.343-1.674 11.384-4.715l60.671-60.67c6.276-6.277 6.276-16.49 0-22.767-3.139-3.139-7.262-4.708-11.384-4.708z"/>
                    <path d="m54.697 233.071c-.524 0-1.035-.207-1.414-.586l-20.16-20.159c-.479-.479-.684-1.17-.541-1.833l8.366-39.022c.153-.716.687-1.291 1.389-1.499.702-.207 1.462-.015 1.98.504l50.815 50.815c.519.518.712 1.278.504 1.98-.207.703-.782 1.235-1.499 1.389l-39.021 8.366c-.138.03-.279.045-.419.045zm-17.976-22.804 18.621 18.621 34.363-7.368-45.617-45.617z"/>
                    <path d="m44.536 243.232h-40.536c-.811 0-1.54-.489-1.85-1.238-.309-.749-.135-1.61.44-2.182l30.537-30.32c.781-.775 2.044-.774 2.823.005l20.16 20.159c.375.375.586.884.586 1.414s-.211 1.039-.586 1.414l-10.16 10.162c-.375.375-.884.586-1.414.586zm-35.683-4h34.855l8.161-8.161-17.337-17.336z"/></g>
            </svg>